<svg width="30" height="30" viewBox="0 0 30 30" fill="none" xmlns="http://www.w3.org/2000/svg">
<path opacity="0.5" d="M27.5 12.5H2.5V23.75C2.5 24.7446 2.89509 25.6984 3.59835 26.4017C4.30161 27.1049 5.25544 27.5 6.25 27.5H23.75C24.7446 27.5 25.6984 27.1049 26.4017 26.4017C27.1049 25.6984 27.5 24.7446 27.5 23.75V12.5ZM8.75 10C8.41848 10 8.10054 9.8683 7.86612 9.63388C7.6317 9.39946 7.5 9.08152 7.5 8.75V3.75C7.5 3.41848 7.6317 3.10054 7.86612 2.86612C8.10054 2.6317 8.41848 2.5 8.75 2.5C9.08152 2.5 9.39946 2.6317 9.63388 2.86612C9.8683 3.10054 10 3.41848 10 3.75V8.75C10 9.08152 9.8683 9.39946 9.63388 9.63388C9.39946 9.8683 9.08152 10 8.75 10ZM21.25 10C20.9185 10 20.6005 9.8683 20.3661 9.63388C20.1317 9.39946 20 9.08152 20 8.75V3.75C20 3.41848 20.1317 3.10054 20.3661 2.86612C20.6005 2.6317 20.9185 2.5 21.25 2.5C21.5815 2.5 21.8995 2.6317 22.1339 2.86612C22.3683 3.10054 22.5 3.41848 22.5 3.75V8.75C22.5 9.08152 22.3683 9.39946 22.1339 9.63388C21.8995 9.8683 21.5815 10 21.25 10Z" fill="#1C797D"/>
<path d="M23.75 5H22.5V8.75C22.5 9.08152 22.3683 9.39946 22.1339 9.63388C21.8995 9.8683 21.5815 10 21.25 10C20.9185 10 20.6005 9.8683 20.3661 9.63388C20.1317 9.39946 20 9.08152 20 8.75V5H10V8.75C10 9.08152 9.8683 9.39946 9.63388 9.63388C9.39946 9.8683 9.08152 10 8.75 10C8.41848 10 8.10054 9.8683 7.86612 9.63388C7.6317 9.39946 7.5 9.08152 7.5 8.75V5H6.25C5.25544 5 4.30161 5.39509 3.59835 6.09835C2.89509 6.80161 2.5 7.75544 2.5 8.75V12.5H27.5V8.75C27.5 7.75544 27.1049 6.80161 26.4017 6.09835C25.6984 5.39509 24.7446 5 23.75 5Z" fill="#1C797D"/>
</svg>
