<svg width="32" height="32" viewBox="0 0 32 32" fill="none" xmlns="http://www.w3.org/2000/svg">
<path d="M15.9993 17.3327C16.7357 17.3327 17.3327 16.7357 17.3327 15.9993C17.3327 15.263 16.7357 14.666 15.9993 14.666C15.263 14.666 14.666 15.263 14.666 15.9993C14.666 16.7357 15.263 17.3327 15.9993 17.3327Z" fill="#231F20"/>
<path d="M21.3326 17.3327C22.069 17.3327 22.6659 16.7357 22.6659 15.9993C22.6659 15.263 22.069 14.666 21.3326 14.666C20.5962 14.666 19.9993 15.263 19.9993 15.9993C19.9993 16.7357 20.5962 17.3327 21.3326 17.3327Z" fill="#231F20"/>
<path d="M10.6661 17.3327C11.4025 17.3327 11.9994 16.7357 11.9994 15.9993C11.9994 15.263 11.4025 14.666 10.6661 14.666C9.92972 14.666 9.33276 15.263 9.33276 15.9993C9.33276 16.7357 9.92972 17.3327 10.6661 17.3327Z" fill="#231F20"/>
<path d="M25.4266 6.57174C23.2389 4.36974 20.3514 3.00002 17.2621 2.69872C14.1727 2.39743 11.075 3.18344 8.50309 4.92124C5.93114 6.65905 4.04609 9.23975 3.17293 12.2184C2.29977 15.1971 2.49321 18.3871 3.71991 21.2384C3.84777 21.5034 3.88972 21.8017 3.83991 22.0917L2.66658 27.7317C2.62138 27.948 2.63061 28.1721 2.69344 28.3838C2.75628 28.5956 2.87076 28.7885 3.02658 28.9451C3.15432 29.0719 3.30641 29.1715 3.47369 29.238C3.64097 29.3044 3.81998 29.3363 3.99991 29.3317H4.26658L9.97325 28.1851C10.2633 28.1502 10.5574 28.1916 10.8266 28.3051C13.6779 29.5318 16.8679 29.7252 19.8466 28.8521C22.8252 27.9789 25.4059 26.0938 27.1437 23.5219C28.8815 20.9499 29.6675 17.8523 29.3663 14.7629C29.065 11.6736 27.6952 8.78612 25.4932 6.5984L25.4266 6.57174ZM26.5332 17.7184C26.2726 19.3104 25.6542 20.8225 24.7246 22.1409C23.7951 23.4594 22.5786 24.5498 21.1668 25.3302C19.7549 26.1106 18.1844 26.5606 16.5735 26.6463C14.9626 26.732 13.3533 26.4512 11.8666 25.8251C11.3393 25.6008 10.7729 25.483 10.1999 25.4784C9.94962 25.4802 9.69989 25.5025 9.45325 25.5451L5.69325 26.3051L6.45325 22.5451C6.60461 21.7308 6.50704 20.8897 6.17325 20.1317C5.5471 18.645 5.26632 17.0357 5.35204 15.4248C5.43775 13.8139 5.88773 12.2434 6.6681 10.8315C7.44848 9.41967 8.53892 8.2032 9.85737 7.27367C11.1758 6.34414 12.6879 5.72576 14.2799 5.46507C15.9509 5.19082 17.6633 5.31837 19.2752 5.83715C20.8872 6.35593 22.3525 7.25105 23.5499 8.44845C24.7473 9.64585 25.6424 11.1111 26.1612 12.7231C26.6799 14.3351 26.8075 16.0474 26.5332 17.7184Z" fill="#231F20"/>
</svg>
