<svg width="83" height="38" viewBox="0 0 83 38" fill="none" xmlns="http://www.w3.org/2000/svg">
<rect x="1" y="1" width="81" height="36" rx="18" fill="white" stroke="#B4B4B4" stroke-width="2"/>
<path d="M27.2563 21.3254C27.2563 21.8754 27.1263 22.3454 26.8663 22.7354C26.6063 23.1154 26.2163 23.4054 25.6963 23.6054C25.1763 23.8054 24.5313 23.9054 23.7613 23.9054C23.1913 23.9054 22.7013 23.8654 22.2913 23.7854C21.8813 23.7154 21.4713 23.5954 21.0613 23.4254V21.5804C21.5013 21.7804 21.9763 21.9454 22.4863 22.0754C22.9963 22.2054 23.4463 22.2704 23.8363 22.2704C24.2763 22.2704 24.5863 22.2054 24.7663 22.0754C24.9563 21.9454 25.0513 21.7754 25.0513 21.5654C25.0513 21.4254 25.0113 21.3004 24.9313 21.1904C24.8613 21.0804 24.7013 20.9554 24.4513 20.8154C24.2013 20.6754 23.8113 20.4954 23.2813 20.2754C22.7713 20.0554 22.3513 19.8404 22.0213 19.6304C21.6913 19.4104 21.4463 19.1504 21.2863 18.8504C21.1263 18.5404 21.0463 18.1554 21.0463 17.6954C21.0463 16.9354 21.3413 16.3654 21.9313 15.9854C22.5213 15.6054 23.3063 15.4154 24.2863 15.4154C24.7963 15.4154 25.2813 15.4654 25.7413 15.5654C26.2013 15.6654 26.6763 15.8304 27.1663 16.0604L26.4913 17.6654C26.2213 17.5454 25.9613 17.4404 25.7113 17.3504C25.4613 17.2604 25.2163 17.1904 24.9763 17.1404C24.7463 17.0904 24.5063 17.0654 24.2563 17.0654C23.9263 17.0654 23.6763 17.1104 23.5063 17.2004C23.3463 17.2904 23.2663 17.4254 23.2663 17.6054C23.2663 17.7354 23.3063 17.8554 23.3863 17.9654C23.4763 18.0654 23.6413 18.1754 23.8813 18.2954C24.1313 18.4154 24.4963 18.5754 24.9763 18.7754C25.4463 18.9654 25.8513 19.1654 26.1913 19.3754C26.5313 19.5754 26.7913 19.8304 26.9713 20.1404C27.1613 20.4404 27.2563 20.8354 27.2563 21.3254ZM36.5123 15.5654V23.7554H34.8023L34.5023 22.7054H34.3823C34.2123 22.9854 33.9923 23.2154 33.7223 23.3954C33.4623 23.5654 33.1723 23.6904 32.8523 23.7704C32.5323 23.8604 32.2023 23.9054 31.8623 23.9054C31.2823 23.9054 30.7723 23.8004 30.3323 23.5904C29.8923 23.3804 29.5523 23.0554 29.3123 22.6154C29.0723 22.1754 28.9523 21.6054 28.9523 20.9054V15.5654H31.1873V20.3504C31.1873 20.9304 31.2923 21.3704 31.5023 21.6704C31.7123 21.9704 32.0473 22.1204 32.5073 22.1204C32.9673 22.1204 33.3223 22.0154 33.5723 21.8054C33.8323 21.5954 34.0123 21.2904 34.1123 20.8904C34.2223 20.4904 34.2773 20.0004 34.2773 19.4204V15.5654H36.5123ZM43.4157 15.4154C44.3357 15.4154 45.0807 15.7754 45.6507 16.4954C46.2207 17.2054 46.5057 18.2554 46.5057 19.6454C46.5057 20.5754 46.3707 21.3604 46.1007 22.0004C45.8307 22.6304 45.4607 23.1054 44.9907 23.4254C44.5207 23.7454 43.9757 23.9054 43.3557 23.9054C42.9657 23.9054 42.6257 23.8554 42.3357 23.7554C42.0557 23.6554 41.8157 23.5254 41.6157 23.3654C41.4157 23.2054 41.2407 23.0354 41.0907 22.8554H40.9707C41.0107 23.0454 41.0407 23.2454 41.0607 23.4554C41.0807 23.6554 41.0907 23.8554 41.0907 24.0554V27.3554H38.8557V15.5654H40.6707L40.9857 16.6304H41.0907C41.2407 16.4104 41.4207 16.2104 41.6307 16.0304C41.8407 15.8404 42.0907 15.6904 42.3807 15.5804C42.6807 15.4704 43.0257 15.4154 43.4157 15.4154ZM42.6957 17.2004C42.3057 17.2004 41.9957 17.2804 41.7657 17.4404C41.5357 17.6004 41.3657 17.8454 41.2557 18.1754C41.1557 18.4954 41.1007 18.9004 41.0907 19.3904V19.6304C41.0907 20.1604 41.1407 20.6104 41.2407 20.9804C41.3407 21.3404 41.5107 21.6154 41.7507 21.8054C41.9907 21.9954 42.3157 22.0904 42.7257 22.0904C43.0657 22.0904 43.3457 21.9954 43.5657 21.8054C43.7857 21.6154 43.9507 21.3354 44.0607 20.9654C44.1707 20.5954 44.2257 20.1454 44.2257 19.6154C44.2257 18.8154 44.1007 18.2154 43.8507 17.8154C43.6107 17.4054 43.2257 17.2004 42.6957 17.2004ZM51.7229 15.4154C52.4829 15.4154 53.1329 15.5604 53.6729 15.8504C54.2229 16.1404 54.6479 16.5604 54.9479 17.1104C55.2479 17.6604 55.3979 18.3354 55.3979 19.1354V20.2154H50.1179C50.1379 20.8454 50.3229 21.3404 50.6729 21.7004C51.0329 22.0604 51.5279 22.2404 52.1579 22.2404C52.6879 22.2404 53.1679 22.1904 53.5979 22.0904C54.0279 21.9804 54.4729 21.8154 54.9329 21.5954V23.3204C54.5329 23.5204 54.1079 23.6654 53.6579 23.7554C53.2179 23.8554 52.6829 23.9054 52.0529 23.9054C51.2329 23.9054 50.5079 23.7554 49.8779 23.4554C49.2479 23.1454 48.7529 22.6804 48.3929 22.0604C48.0329 21.4404 47.8529 20.6604 47.8529 19.7204C47.8529 18.7604 48.0129 17.9654 48.3329 17.3354C48.6629 16.6954 49.1179 16.2154 49.6979 15.8954C50.2779 15.5754 50.9529 15.4154 51.7229 15.4154ZM51.7379 17.0054C51.3079 17.0054 50.9479 17.1454 50.6579 17.4254C50.3779 17.7054 50.2129 18.1404 50.1629 18.7304H53.2979C53.2979 18.4004 53.2379 18.1054 53.1179 17.8454C53.0079 17.5854 52.8379 17.3804 52.6079 17.2304C52.3779 17.0804 52.0879 17.0054 51.7379 17.0054ZM61.7852 15.4154C61.8952 15.4154 62.0252 15.4204 62.1752 15.4304C62.3252 15.4404 62.4452 15.4554 62.5352 15.4754L62.3702 17.5754C62.3002 17.5554 62.1952 17.5404 62.0552 17.5304C61.9252 17.5104 61.8102 17.5004 61.7102 17.5004C61.4202 17.5004 61.1402 17.5404 60.8702 17.6204C60.6002 17.6904 60.3552 17.8054 60.1352 17.9654C59.9252 18.1254 59.7552 18.3404 59.6252 18.6104C59.5052 18.8704 59.4452 19.1954 59.4452 19.5854V23.7554H57.2102V15.5654H58.9052L59.2352 16.9454H59.3402C59.5002 16.6654 59.7002 16.4104 59.9402 16.1804C60.1802 15.9504 60.4552 15.7654 60.7652 15.6254C61.0852 15.4854 61.4252 15.4154 61.7852 15.4154Z" fill="black"/>
</svg>
