<svg width="22" height="21" viewBox="0 0 22 21" fill="none" xmlns="http://www.w3.org/2000/svg">
<rect width="21.6" height="21" rx="10.5" fill="#1C797D"/>
<path d="M13.6838 13.335L12.362 12.0167C12.7885 11.4732 13.0199 10.802 13.019 10.1111C13.019 9.49579 12.8366 8.89429 12.4949 8.38267C12.1532 7.87105 11.6674 7.47229 11.0991 7.23682C10.5308 7.00135 9.90549 6.93974 9.30219 7.05978C8.69888 7.17982 8.14472 7.47613 7.70976 7.91122C7.2748 8.34632 6.97859 8.90067 6.85859 9.50417C6.73859 10.1077 6.80018 10.7332 7.03557 11.3017C7.27097 11.8702 7.6696 12.3561 8.18105 12.6979C8.69251 13.0398 9.29382 13.2222 9.90894 13.2222C10.5996 13.2231 11.2706 12.9916 11.8139 12.565L13.1318 13.8872C13.1679 13.9237 13.2109 13.9526 13.2583 13.9723C13.3057 13.9921 13.3565 14.0023 13.4078 14.0023C13.4591 14.0023 13.5099 13.9921 13.5573 13.9723C13.6047 13.9526 13.6477 13.9237 13.6838 13.8872C13.7203 13.8511 13.7492 13.8081 13.7689 13.7607C13.7887 13.7133 13.7988 13.6625 13.7988 13.6111C13.7988 13.5598 13.7887 13.5089 13.7689 13.4616C13.7492 13.4142 13.7203 13.3712 13.6838 13.335ZM7.57636 10.1111C7.57636 9.64962 7.71316 9.1985 7.96947 8.81478C8.22577 8.43107 8.59007 8.132 9.0163 7.95539C9.44252 7.77879 9.91153 7.73258 10.364 7.82261C10.8165 7.91265 11.2321 8.13487 11.5583 8.4612C11.8845 8.78752 12.1067 9.20328 12.1967 9.6559C12.2867 10.1085 12.2405 10.5777 12.064 11.004C11.8874 11.4304 11.5884 11.7948 11.2049 12.0512C10.8213 12.3076 10.3703 12.4444 9.90894 12.4444C9.2903 12.4444 8.697 12.1986 8.25955 11.761C7.82211 11.3234 7.57636 10.73 7.57636 10.1111Z" fill="white"/>
</svg>
