<svg width="19" height="17" viewBox="0 0 19 17" fill="none" xmlns="http://www.w3.org/2000/svg">
<path d="M9.83203 16.667C9.7136 16.6677 9.5962 16.644 9.48656 16.5971C9.37692 16.5503 9.2772 16.4813 9.19312 16.394L2.20105 9.07148C1.32399 8.14456 0.832031 6.89313 0.832031 5.58903C0.832031 4.28493 1.32399 3.0335 2.20105 2.10659C3.08497 1.18469 4.28232 0.666992 5.53061 0.666992C6.77889 0.666992 7.97624 1.18469 8.86016 2.10659L9.83203 3.12308L10.8039 2.10659C11.6878 1.18469 12.8852 0.666992 14.1335 0.666992C15.3817 0.666992 16.5791 1.18469 17.463 2.10659C18.3401 3.0335 18.832 4.28493 18.832 5.58903C18.832 6.89313 18.3401 8.14456 17.463 9.07148L10.4709 16.394C10.3869 16.4813 10.2871 16.5503 10.1775 16.5971C10.0679 16.644 9.95046 16.6677 9.83203 16.667Z" fill="#B1D8DA"/>
</svg>
