<svg width="17" height="17" viewBox="0 0 17 17" fill="none" xmlns="http://www.w3.org/2000/svg">
<path d="M1 8.5C1 12.6421 4.35786 16 8.5 16C12.6421 16 16 12.6421 16 8.5C16 4.35786 12.6421 1 8.5 1C4.35786 1 1 4.35786 1 8.5Z" stroke="#555555" stroke-linecap="round" stroke-linejoin="round"/>
<path d="M9.25 1.03674C9.25 1.03674 11.5 3.99971 11.5 8.49968C11.5 12.9997 9.25 15.9627 9.25 15.9627" stroke="#555555" stroke-linecap="round" stroke-linejoin="round"/>
<path d="M7.75 15.9627C7.75 15.9627 5.5 12.9997 5.5 8.49968C5.5 3.99971 7.75 1.03674 7.75 1.03674" stroke="#555555" stroke-linecap="round" stroke-linejoin="round"/>
<path d="M1.47217 11.125H15.5277" stroke="#555555" stroke-linecap="round" stroke-linejoin="round"/>
<path d="M1.47217 5.875H15.5277" stroke="#555555" stroke-linecap="round" stroke-linejoin="round"/>
</svg>
